<?xml version="1.0" encoding="iso-8859-1"?>
<!-- Generator: Adobe Illustrator 16.0.0, SVG Export Plug-In . SVG Version: 6.00 Build 0)  -->
<!DOCTYPE svg PUBLIC "-//W3C//DTD SVG 1.1//EN" "http://www.w3.org/Graphics/SVG/1.1/DTD/svg11.dtd">
<svg version="1.1" id="Capa_1" xmlns="http://www.w3.org/2000/svg" xmlns:xlink="http://www.w3.org/1999/xlink" x="0px" y="0px"
	 width="31.879px" height="31.879px" viewBox="0 0 31.879 31.879" style="enable-background:new 0 0 31.879 31.879;"
	 xml:space="preserve">
<g>
	<g id="Check">
		<g>
			<path d="M30.708,5.091c-1.511-1.511-4.146-1.511-5.656,0L11.877,18.265l-5.05-5.051c-1.513-1.513-4.146-1.511-5.657,0
				c-1.559,1.559-1.56,4.098,0,5.656l7.879,7.879c0.756,0.756,1.76,1.172,2.828,1.172c1.069,0,2.073-0.416,2.828-1.172l16.002-16
				c0.756-0.756,1.172-1.761,1.172-2.829C31.879,6.852,31.463,5.847,30.708,5.091z M29.293,9.335l-16.002,16
				c-0.756,0.756-2.072,0.756-2.828,0l-7.879-7.878c-0.779-0.78-0.779-2.049,0-2.829c0.378-0.378,0.88-0.586,1.415-0.586
				c0.534,0,1.036,0.208,1.414,0.586l5.757,5.757c0.391,0.392,1.023,0.392,1.414,0L26.463,6.506c0.756-0.756,2.074-0.756,2.83,0
				c0.377,0.377,0.586,0.88,0.586,1.414S29.67,8.957,29.293,9.335z"/>
		</g>
	</g>
</g>
<g>
</g>
<g>
</g>
<g>
</g>
<g>
</g>
<g>
</g>
<g>
</g>
<g>
</g>
<g>
</g>
<g>
</g>
<g>
</g>
<g>
</g>
<g>
</g>
<g>
</g>
<g>
</g>
<g>
</g>
</svg>
